<?xml version="1.0" encoding="iso-8859-1"?>
<!-- Generator: Adobe Illustrator 18.0.0, SVG Export Plug-In . SVG Version: 6.00 Build 0)  -->
<!DOCTYPE svg PUBLIC "-//W3C//DTD SVG 1.1//EN" "http://www.w3.org/Graphics/SVG/1.1/DTD/svg11.dtd">
<svg version="1.1" id="Capa_1" xmlns="http://www.w3.org/2000/svg" xmlns:xlink="http://www.w3.org/1999/xlink" x="0px" y="0px"
	 viewBox="0 0 297 297" style="enable-background:new 0 0 297 297;" xml:space="preserve">
<path d="M34.525,203.402c0,20.04,14.164,36.825,33.004,40.887c-9.31,4.474-15.751,13.994-15.751,24.994
	c0,15.284,12.429,27.717,27.71,27.717c15.278,0,27.711-12.433,27.711-27.717c0-10.281-5.636-19.267-13.975-24.049h110.553
	c-8.339,4.782-13.973,13.768-13.973,24.049c0,15.284,12.431,27.717,27.709,27.717c15.28,0,27.713-12.433,27.713-27.717
	c0-10.281-5.636-19.267-13.975-24.049h20.768c5.775,0,10.457-4.685,10.457-10.459c0-5.771-4.682-10.458-10.457-10.458H76.351
	c-11.535,0-20.914-9.382-20.914-20.915v-15.559c6.157,3.571,13.298,5.627,20.914,5.627h141.162
	c22.017,0,43.996-16.584,50.041-37.752l25.889-90.623c0.904-3.151,0.27-6.547-1.707-9.167c-1.976-2.622-5.066-4.163-8.345-4.163
	H55.437v-9.932C55.437,18.769,36.676,0,13.61,0C7.838,0,3.153,4.685,3.153,10.458c0,5.778,4.685,10.457,10.457,10.457
	c11.533,0,20.915,9.386,20.915,20.919V203.402z M217.514,276.084c-3.745,0-6.796-3.05-6.796-6.801c0-3.746,3.051-6.797,6.796-6.797
	c3.747,0,6.797,3.051,6.797,6.797C224.31,273.034,221.261,276.084,217.514,276.084z M79.488,276.084
	c-3.747,0-6.797-3.05-6.797-6.801c0-3.746,3.05-6.797,6.797-6.797c3.746,0,6.797,3.051,6.797,6.797
	C86.285,273.034,83.234,276.084,79.488,276.084z M247.446,149.97c-3.436,12.032-17.425,22.582-29.933,22.582H76.351
	c-11.535,0-20.914-9.382-20.914-20.915V72.683h214.089L247.446,149.97z"/>
<g>
</g>
<g>
</g>
<g>
</g>
<g>
</g>
<g>
</g>
<g>
</g>
<g>
</g>
<g>
</g>
<g>
</g>
<g>
</g>
<g>
</g>
<g>
</g>
<g>
</g>
<g>
</g>
<g>
</g>
</svg>
